<svg xmlns="http://www.w3.org/2000/svg" width="45" height="45" viewBox="0 0 44 44" fill="none">
<g clip-path="url(#clip0_3_82)" filter="url(#filter0_d_3_82)">
<path fill-rule="evenodd" clip-rule="evenodd" d="M22.0004 0.75C17.7272 0.752217 13.5942 2.26569 10.3403 5.01978C7.08641 7.77388 4.92385 11.589 4.23932 15.783C3.55478 19.977 4.39289 24.2763 6.60381 27.9123C8.81472 31.5482 12.2543 34.2836 16.3074 35.6295C17.2016 35.7954 17.5384 35.2412 17.5384 34.77C17.5384 34.2988 17.5205 32.9325 17.5145 31.4388C12.5071 32.5206 11.449 29.3257 11.449 29.3257C10.6323 27.2512 9.45196 26.7058 9.45196 26.7058C7.81857 25.5974 9.57417 25.6182 9.57417 25.6182C11.3834 25.7456 12.3342 27.4645 12.3342 27.4645C13.9378 30.2 16.5458 29.4087 17.5712 28.9464C17.7321 27.7876 18.2001 26.9992 18.7157 26.5517C14.7157 26.1013 10.5131 24.5661 10.5131 17.7081C10.4883 15.9296 11.152 14.2096 12.367 12.904C12.1822 12.4535 11.5652 10.6338 12.5429 8.16215C12.5429 8.16215 14.0541 7.68203 17.4937 9.99666C20.444 9.19444 23.5568 9.19444 26.5071 9.99666C29.9438 7.68203 31.452 8.16215 31.452 8.16215C32.4326 10.6279 31.8156 12.4476 31.6308 12.904C32.8496 14.2098 33.5148 15.9328 33.4877 17.7141C33.4877 24.5868 29.2761 26.1013 25.2701 26.5428C25.914 27.1 26.4892 28.1877 26.4892 29.8592C26.4892 32.2538 26.4684 34.1802 26.4684 34.77C26.4684 35.2471 26.7932 35.8043 27.7053 35.6295C31.7589 34.2835 35.1988 31.5476 37.4097 27.911C39.6205 24.2744 40.4582 19.9744 39.7729 15.7801C39.0876 11.5857 36.924 7.77053 33.669 5.01691C30.414 2.26328 26.28 0.750812 22.0063 0.75H22.0004Z" fill="white"/>
<path d="M16.0417 29.963C16.0417 30.1082 15.8748 30.2327 15.6602 30.2357C15.4456 30.2386 15.2698 30.1201 15.2698 29.9749C15.2698 29.8296 15.4367 29.7052 15.6513 29.7022C15.8659 29.6992 16.0417 29.8148 16.0417 29.963Z" fill="white"/>
<path d="M17.4128 29.7349C17.4397 29.8801 17.2906 30.0312 17.076 30.0668C16.8614 30.1024 16.6736 30.0164 16.6468 29.8742C16.62 29.7319 16.775 29.5778 16.9836 29.5393C17.1923 29.5007 17.386 29.5897 17.4128 29.7349Z" fill="white"/>
<path d="M14.5693 29.8621C14.5246 30.0014 14.3219 30.0636 14.1192 30.0043C13.9165 29.9451 13.7824 29.7791 13.8211 29.6368C13.8599 29.4946 14.0655 29.4294 14.2712 29.4946C14.4769 29.5598 14.608 29.7169 14.5693 29.8621Z" fill="white"/>
<path d="M13.2191 29.2814C13.1207 29.391 12.921 29.3614 12.7571 29.2132C12.5931 29.065 12.5544 28.8635 12.6527 28.7568C12.7511 28.6501 12.9508 28.6797 13.1207 28.825C13.2906 28.9702 13.3234 29.1747 13.2191 29.2814Z" fill="white"/>
<path d="M12.2564 28.2857C12.1461 28.3627 11.9583 28.2857 11.854 28.1316C11.8251 28.1039 11.8022 28.0708 11.7865 28.0341C11.7708 27.9974 11.7628 27.958 11.7628 27.9182C11.7628 27.8783 11.7708 27.8389 11.7865 27.8022C11.8022 27.7656 11.8251 27.7324 11.854 27.7048C11.9643 27.6307 12.152 27.7048 12.2564 27.8559C12.3607 28.0071 12.3637 28.2086 12.2564 28.2857Z" fill="white"/>
<path d="M11.547 27.2572C11.4852 27.2881 11.4146 27.2968 11.3472 27.2816C11.2798 27.2665 11.2197 27.2285 11.1774 27.1742C11.0611 27.0497 11.0373 26.8779 11.1267 26.8008C11.2161 26.7237 11.3771 26.7593 11.4933 26.8838C11.6096 27.0083 11.6364 27.1801 11.547 27.2572Z" fill="white"/>
</g>
<defs>
<filter id="filter0_d_3_82" x="0" y="0" width="44" height="44" filterUnits="userSpaceOnUse" color-interpolation-filters="sRGB">
<feFlood flood-opacity="0" result="BackgroundImageFix"/>
<feColorMatrix in="SourceAlpha" type="matrix" values="0 0 0 0 0 0 0 0 0 0 0 0 0 0 0 0 0 0 127 0" result="hardAlpha"/>
<feOffset dy="4"/>
<feGaussianBlur stdDeviation="2"/>
<feComposite in2="hardAlpha" operator="out"/>
<feColorMatrix type="matrix" values="0 0 0 0 0 0 0 0 0 0 0 0 0 0 0 0 0 0 0.25 0"/>
<feBlend mode="normal" in2="BackgroundImageFix" result="effect1_dropShadow_3_82"/>
<feBlend mode="normal" in="SourceGraphic" in2="effect1_dropShadow_3_82" result="shape"/>
</filter>
<clipPath id="clip0_3_82">
<rect width="36" height="36" fill="white" transform="translate(4)"/>
</clipPath>
</defs>
</svg>