<svg xmlns="http://www.w3.org/2000/svg" width="45" height="45" viewBox="0 0 44 44" fill="none">
<g filter="url(#filter0_d_3_83)">
<path d="M37.3352 0H6.65781C5.18828 0 4 1.16016 4 2.59453V33.3984C4 34.8328 5.18828 36 6.65781 36H37.3352C38.8047 36 40 34.8328 40 33.4055V2.59453C40 1.16016 38.8047 0 37.3352 0ZM14.6805 30.6773H9.33672V13.493H14.6805V30.6773ZM12.0086 11.1516C10.293 11.1516 8.90781 9.76641 8.90781 8.05781C8.90781 6.34922 10.293 4.96406 12.0086 4.96406C13.7172 4.96406 15.1023 6.34922 15.1023 8.05781C15.1023 9.75937 13.7172 11.1516 12.0086 11.1516ZM34.6773 30.6773H29.3406V22.3242C29.3406 20.3344 29.3055 17.768 26.5633 17.768C23.7859 17.768 23.3641 19.9406 23.3641 22.1836V30.6773H18.0344V13.493H23.1531V15.8414H23.2234C23.9336 14.4914 25.6773 13.0641 28.2719 13.0641C33.6789 13.0641 34.6773 16.6219 34.6773 21.2484V30.6773Z" fill="white"/>
</g>
<defs>
<filter id="filter0_d_3_83" x="0" y="0" width="44" height="44" filterUnits="userSpaceOnUse" color-interpolation-filters="sRGB">
<feFlood flood-opacity="0" result="BackgroundImageFix"/>
<feColorMatrix in="SourceAlpha" type="matrix" values="0 0 0 0 0 0 0 0 0 0 0 0 0 0 0 0 0 0 127 0" result="hardAlpha"/>
<feOffset dy="4"/>
<feGaussianBlur stdDeviation="2"/>
<feComposite in2="hardAlpha" operator="out"/>
<feColorMatrix type="matrix" values="0 0 0 0 0 0 0 0 0 0 0 0 0 0 0 0 0 0 0.25 0"/>
<feBlend mode="normal" in2="BackgroundImageFix" result="effect1_dropShadow_3_83"/>
<feBlend mode="normal" in="SourceGraphic" in2="effect1_dropShadow_3_83" result="shape"/>
</filter>
</defs>
</svg>