<svg xmlns="http://www.w3.org/2000/svg" width="45" height="45" viewBox="0 0 44 41" fill="none">
<g clip-path="url(#clip0_3_84)" filter="url(#filter0_d_3_84)">
<path d="M15.3252 32.6251C28.9068 32.6251 36.3374 21.3702 36.3374 11.6129C36.3374 11.2965 36.3304 10.9731 36.3163 10.6567C37.7618 9.61131 39.0092 8.3165 40 6.83307C38.6538 7.43202 37.2245 7.82319 35.7609 7.99323C37.3019 7.06948 38.4558 5.61833 39.0086 3.90877C37.5588 4.76796 35.9734 5.37404 34.3202 5.70104C33.2063 4.51746 31.7335 3.7338 30.1295 3.4712C28.5256 3.2086 26.8798 3.4817 25.4466 4.24827C24.0134 5.01484 22.8727 6.23218 22.2008 7.71209C21.5288 9.192 21.3631 10.852 21.7293 12.4356C18.7937 12.2883 15.9219 11.5257 13.3 10.1973C10.678 8.86886 8.36454 7.00428 6.50945 4.7244C5.5666 6.34999 5.27808 8.27359 5.70255 10.1043C6.12701 11.9349 7.23259 13.5353 8.79461 14.5801C7.62194 14.5429 6.47496 14.2271 5.44844 13.659V13.7504C5.44739 15.4563 6.03715 17.11 7.11746 18.4303C8.19778 19.7506 9.70199 20.656 11.3744 20.9926C10.2881 21.2898 9.14797 21.3331 8.04227 21.1192C8.51418 22.5863 9.43236 23.8695 10.6687 24.7896C11.905 25.7098 13.3977 26.221 14.9385 26.252C12.3226 28.3068 9.09126 29.4213 5.76484 29.416C5.17493 29.4151 4.5856 29.379 4 29.3078C7.37928 31.4757 11.3103 32.6272 15.3252 32.6251Z" fill="white"/>
</g>
<defs>
<filter id="filter0_d_3_84" x="0" y="0" width="44" height="44" filterUnits="userSpaceOnUse" color-interpolation-filters="sRGB">
<feFlood flood-opacity="0" result="BackgroundImageFix"/>
<feColorMatrix in="SourceAlpha" type="matrix" values="0 0 0 0 0 0 0 0 0 0 0 0 0 0 0 0 0 0 127 0" result="hardAlpha"/>
<feOffset dy="4"/>
<feGaussianBlur stdDeviation="2"/>
<feComposite in2="hardAlpha" operator="out"/>
<feColorMatrix type="matrix" values="0 0 0 0 0 0 0 0 0 0 0 0 0 0 0 0 0 0 0.25 0"/>
<feBlend mode="normal" in2="BackgroundImageFix" result="effect1_dropShadow_3_84"/>
<feBlend mode="normal" in="SourceGraphic" in2="effect1_dropShadow_3_84" result="shape"/>
</filter>
<clipPath id="clip0_3_84">
<rect width="36" height="36" fill="white" transform="translate(4)"/>
</clipPath>
</defs>
</svg>